<mxfile host="app.diagrams.net" modified="2024-07-06T20:32:59.335Z" agent="Mozilla/5.0 (Windows NT 10.0; Win64; x64) AppleWebKit/537.36 (KHTML, like Gecko) Chrome/126.0.0.0 Safari/537.36" etag="UJFnnNKxCPYQ29BvilAU" version="24.6.4" type="github">
  <diagram id="C5RBs43oDa-KdzZeNtuy" name="Page-1">
    <mxGraphModel dx="874" dy="857" grid="1" gridSize="10" guides="1" tooltips="1" connect="1" arrows="1" fold="1" page="1" pageScale="1" pageWidth="827" pageHeight="1169" math="0" shadow="0">
      <root>
        <mxCell id="WIyWlLk6GJQsqaUBKTNV-0" />
        <mxCell id="WIyWlLk6GJQsqaUBKTNV-1" parent="WIyWlLk6GJQsqaUBKTNV-0" />
        <mxCell id="WIyWlLk6GJQsqaUBKTNV-2" value="" style="rounded=0;html=1;jettySize=auto;orthogonalLoop=1;fontSize=11;endArrow=block;endFill=0;endSize=8;strokeWidth=1;shadow=0;labelBackgroundColor=none;edgeStyle=orthogonalEdgeStyle;" parent="WIyWlLk6GJQsqaUBKTNV-1" source="WIyWlLk6GJQsqaUBKTNV-3" edge="1">
          <mxGeometry relative="1" as="geometry">
            <mxPoint x="220" y="170" as="targetPoint" />
          </mxGeometry>
        </mxCell>
        <mxCell id="WIyWlLk6GJQsqaUBKTNV-3" value="New Regiment" style="rounded=1;whiteSpace=wrap;html=1;fontSize=12;glass=0;strokeWidth=1;shadow=0;" parent="WIyWlLk6GJQsqaUBKTNV-1" vertex="1">
          <mxGeometry x="160" y="80" width="120" height="40" as="geometry" />
        </mxCell>
        <mxCell id="N_iPnZJbgPe1cc1VUElV-0" value="New Character" style="rounded=1;whiteSpace=wrap;html=1;fontSize=12;glass=0;strokeWidth=1;shadow=0;" parent="WIyWlLk6GJQsqaUBKTNV-1" vertex="1">
          <mxGeometry x="480" y="80" width="120" height="40" as="geometry" />
        </mxCell>
        <mxCell id="N_iPnZJbgPe1cc1VUElV-1" value="Search Game" style="rounded=1;whiteSpace=wrap;html=1;fontSize=12;glass=0;strokeWidth=1;shadow=0;" parent="WIyWlLk6GJQsqaUBKTNV-1" vertex="1">
          <mxGeometry x="800" y="80" width="120" height="40" as="geometry" />
        </mxCell>
        <mxCell id="N_iPnZJbgPe1cc1VUElV-2" value="Loot&amp;nbsp; Tool" style="rounded=1;whiteSpace=wrap;html=1;fontSize=12;glass=0;strokeWidth=1;shadow=0;" parent="WIyWlLk6GJQsqaUBKTNV-1" vertex="1">
          <mxGeometry x="1120.5" y="80" width="120" height="40" as="geometry" />
        </mxCell>
        <mxCell id="N_iPnZJbgPe1cc1VUElV-3" value="Encounters" style="rounded=1;whiteSpace=wrap;html=1;fontSize=12;glass=0;strokeWidth=1;shadow=0;" parent="WIyWlLk6GJQsqaUBKTNV-1" vertex="1">
          <mxGeometry x="1440" y="80" width="120" height="40" as="geometry" />
        </mxCell>
        <mxCell id="N_iPnZJbgPe1cc1VUElV-5" value="Item?&amp;nbsp;&lt;div&gt;Perk?&amp;nbsp;&lt;/div&gt;&lt;div&gt;Topic?&lt;/div&gt;" style="rhombus;whiteSpace=wrap;html=1;shadow=0;fontFamily=Helvetica;fontSize=12;align=center;strokeWidth=1;spacing=6;spacingTop=-4;" parent="WIyWlLk6GJQsqaUBKTNV-1" vertex="1">
          <mxGeometry x="810" y="160" width="100" height="80" as="geometry" />
        </mxCell>
        <mxCell id="N_iPnZJbgPe1cc1VUElV-12" value="" style="rounded=0;html=1;jettySize=auto;orthogonalLoop=1;fontSize=11;endArrow=block;endFill=0;endSize=8;strokeWidth=1;shadow=0;labelBackgroundColor=none;edgeStyle=orthogonalEdgeStyle;" parent="WIyWlLk6GJQsqaUBKTNV-1" edge="1">
          <mxGeometry relative="1" as="geometry">
            <mxPoint x="859.71" y="120" as="sourcePoint" />
            <mxPoint x="860" y="160" as="targetPoint" />
            <Array as="points">
              <mxPoint x="859.71" y="150" />
              <mxPoint x="859.71" y="150" />
            </Array>
          </mxGeometry>
        </mxCell>
        <mxCell id="N_iPnZJbgPe1cc1VUElV-15" value="Name,&amp;nbsp;&lt;span style=&quot;background-color: initial;&quot;&gt;Category&lt;/span&gt;&lt;div&gt;Stat Table&lt;/div&gt;&lt;div&gt;Information&lt;/div&gt;" style="rounded=1;whiteSpace=wrap;html=1;fontSize=12;glass=0;strokeWidth=1;shadow=0;" parent="WIyWlLk6GJQsqaUBKTNV-1" vertex="1">
          <mxGeometry x="800" y="280" width="120" height="60" as="geometry" />
        </mxCell>
        <mxCell id="N_iPnZJbgPe1cc1VUElV-17" value="" style="rounded=0;html=1;jettySize=auto;orthogonalLoop=1;fontSize=11;endArrow=block;endFill=0;endSize=8;strokeWidth=1;shadow=0;labelBackgroundColor=none;edgeStyle=orthogonalEdgeStyle;" parent="WIyWlLk6GJQsqaUBKTNV-1" edge="1">
          <mxGeometry relative="1" as="geometry">
            <mxPoint x="859.86" y="240" as="sourcePoint" />
            <mxPoint x="860.15" y="280" as="targetPoint" />
            <Array as="points">
              <mxPoint x="859.86" y="270" />
              <mxPoint x="859.86" y="270" />
            </Array>
          </mxGeometry>
        </mxCell>
        <mxCell id="N_iPnZJbgPe1cc1VUElV-20" value="Quantity&lt;div&gt;Item Type&lt;/div&gt;&lt;div&gt;Rarity (mn-mx)&lt;/div&gt;" style="rhombus;whiteSpace=wrap;html=1;shadow=0;fontFamily=Helvetica;fontSize=12;align=center;strokeWidth=1;spacing=6;spacingTop=-4;" parent="WIyWlLk6GJQsqaUBKTNV-1" vertex="1">
          <mxGeometry x="1113.37" y="160" width="134.25" height="95" as="geometry" />
        </mxCell>
        <mxCell id="N_iPnZJbgPe1cc1VUElV-23" value="" style="rounded=0;html=1;jettySize=auto;orthogonalLoop=1;fontSize=11;endArrow=block;endFill=0;endSize=8;strokeWidth=1;shadow=0;labelBackgroundColor=none;edgeStyle=orthogonalEdgeStyle;" parent="WIyWlLk6GJQsqaUBKTNV-1" edge="1">
          <mxGeometry relative="1" as="geometry">
            <mxPoint x="1180.26" y="120" as="sourcePoint" />
            <mxPoint x="1180.55" y="160" as="targetPoint" />
            <Array as="points">
              <mxPoint x="1180.26" y="150" />
              <mxPoint x="1180.26" y="150" />
            </Array>
          </mxGeometry>
        </mxCell>
        <mxCell id="N_iPnZJbgPe1cc1VUElV-24" value="Item Type List" style="swimlane;fontStyle=0;childLayout=stackLayout;horizontal=1;startSize=26;fillColor=none;horizontalStack=0;resizeParent=1;resizeParentMax=0;resizeLast=0;collapsible=1;marginBottom=0;html=1;" parent="WIyWlLk6GJQsqaUBKTNV-1" vertex="1">
          <mxGeometry x="1280" y="127.5" width="140" height="160" as="geometry">
            <mxRectangle x="1270" y="110" width="60" height="30" as="alternateBounds" />
          </mxGeometry>
        </mxCell>
        <mxCell id="N_iPnZJbgPe1cc1VUElV-25" value="Ammo&lt;span style=&quot;white-space: pre;&quot;&gt;&#x9;&lt;/span&gt;&lt;span style=&quot;white-space: pre;&quot;&gt;&#x9;&lt;/span&gt;" style="text;strokeColor=none;fillColor=none;align=left;verticalAlign=top;spacingLeft=4;spacingRight=4;overflow=hidden;rotatable=0;points=[[0,0.5],[1,0.5]];portConstraint=eastwest;whiteSpace=wrap;html=1;" parent="N_iPnZJbgPe1cc1VUElV-24" vertex="1">
          <mxGeometry y="26" width="140" height="26" as="geometry" />
        </mxCell>
        <mxCell id="N_iPnZJbgPe1cc1VUElV-26" value="Armor" style="text;strokeColor=none;fillColor=none;align=left;verticalAlign=top;spacingLeft=4;spacingRight=4;overflow=hidden;rotatable=0;points=[[0,0.5],[1,0.5]];portConstraint=eastwest;whiteSpace=wrap;html=1;" parent="N_iPnZJbgPe1cc1VUElV-24" vertex="1">
          <mxGeometry y="52" width="140" height="26" as="geometry" />
        </mxCell>
        <mxCell id="N_iPnZJbgPe1cc1VUElV-27" value="Weapon&lt;div&gt;&lt;br&gt;&lt;/div&gt;&lt;div&gt;Food&lt;/div&gt;&lt;div&gt;&lt;br&gt;&lt;/div&gt;&lt;div&gt;Drug&lt;/div&gt;&lt;div&gt;&lt;br&gt;&lt;/div&gt;&lt;div&gt;Misc&lt;/div&gt;" style="text;strokeColor=none;fillColor=none;align=left;verticalAlign=top;spacingLeft=4;spacingRight=4;overflow=hidden;rotatable=0;points=[[0,0.5],[1,0.5]];portConstraint=eastwest;whiteSpace=wrap;html=1;" parent="N_iPnZJbgPe1cc1VUElV-24" vertex="1">
          <mxGeometry y="78" width="140" height="82" as="geometry" />
        </mxCell>
        <mxCell id="N_iPnZJbgPe1cc1VUElV-28" value="" style="rounded=0;html=1;jettySize=auto;orthogonalLoop=1;fontSize=11;endArrow=block;endFill=0;endSize=8;strokeWidth=1;shadow=0;labelBackgroundColor=none;entryX=0.01;entryY=1.154;entryDx=0;entryDy=0;entryPerimeter=0;" parent="WIyWlLk6GJQsqaUBKTNV-1" target="N_iPnZJbgPe1cc1VUElV-26" edge="1">
          <mxGeometry relative="1" as="geometry">
            <mxPoint x="1210" y="208" as="sourcePoint" />
            <mxPoint x="1190.55" y="170" as="targetPoint" />
          </mxGeometry>
        </mxCell>
        <mxCell id="N_iPnZJbgPe1cc1VUElV-40" value="" style="rounded=0;html=1;jettySize=auto;orthogonalLoop=1;fontSize=11;endArrow=block;endFill=0;endSize=8;strokeWidth=1;shadow=0;labelBackgroundColor=none;edgeStyle=orthogonalEdgeStyle;exitX=0.5;exitY=1;exitDx=0;exitDy=0;entryX=0.5;entryY=0;entryDx=0;entryDy=0;" parent="WIyWlLk6GJQsqaUBKTNV-1" source="N_iPnZJbgPe1cc1VUElV-0" target="0Ut09t-60lBH6S7AR5-u-23" edge="1">
          <mxGeometry relative="1" as="geometry">
            <mxPoint x="600" y="150" as="sourcePoint" />
            <mxPoint x="500" y="170" as="targetPoint" />
          </mxGeometry>
        </mxCell>
        <mxCell id="N_iPnZJbgPe1cc1VUElV-51" value="Name, Qt, Wt, Value, Rarity, Source" style="rounded=1;whiteSpace=wrap;html=1;fontSize=12;glass=0;strokeWidth=1;shadow=0;" parent="WIyWlLk6GJQsqaUBKTNV-1" vertex="1">
          <mxGeometry x="1121" y="300" width="120" height="60" as="geometry" />
        </mxCell>
        <mxCell id="N_iPnZJbgPe1cc1VUElV-52" value="" style="rounded=0;html=1;jettySize=auto;orthogonalLoop=1;fontSize=11;endArrow=block;endFill=0;endSize=8;strokeWidth=1;shadow=0;labelBackgroundColor=none;edgeStyle=orthogonalEdgeStyle;" parent="WIyWlLk6GJQsqaUBKTNV-1" edge="1">
          <mxGeometry relative="1" as="geometry">
            <mxPoint x="1180.7" y="255" as="sourcePoint" />
            <mxPoint x="1180.99" y="295" as="targetPoint" />
            <Array as="points">
              <mxPoint x="1180.7" y="285" />
              <mxPoint x="1180.7" y="285" />
            </Array>
          </mxGeometry>
        </mxCell>
        <mxCell id="N_iPnZJbgPe1cc1VUElV-53" value="This character is a [gender] guardsman named [name].&lt;div&gt;[titlecase] is a [speciality] and people often note that [demeanor]&lt;/div&gt;" style="rounded=1;whiteSpace=wrap;html=1;fontSize=12;glass=0;strokeWidth=1;shadow=0;" parent="WIyWlLk6GJQsqaUBKTNV-1" vertex="1">
          <mxGeometry x="450" y="340" width="240" height="160" as="geometry" />
        </mxCell>
        <mxCell id="N_iPnZJbgPe1cc1VUElV-54" value="" style="rounded=0;html=1;jettySize=auto;orthogonalLoop=1;fontSize=11;endArrow=block;endFill=0;endSize=8;strokeWidth=1;shadow=0;labelBackgroundColor=none;edgeStyle=orthogonalEdgeStyle;" parent="WIyWlLk6GJQsqaUBKTNV-1" edge="1">
          <mxGeometry relative="1" as="geometry">
            <mxPoint x="569.86" y="300" as="sourcePoint" />
            <mxPoint x="570.15" y="340" as="targetPoint" />
            <Array as="points">
              <mxPoint x="569.86" y="330" />
              <mxPoint x="569.86" y="330" />
            </Array>
          </mxGeometry>
        </mxCell>
        <mxCell id="N_iPnZJbgPe1cc1VUElV-55" value="" style="rounded=0;html=1;jettySize=auto;orthogonalLoop=1;fontSize=11;endArrow=block;endFill=0;endSize=8;strokeWidth=1;shadow=0;labelBackgroundColor=none;edgeStyle=orthogonalEdgeStyle;" parent="WIyWlLk6GJQsqaUBKTNV-1" target="N_iPnZJbgPe1cc1VUElV-56" edge="1">
          <mxGeometry relative="1" as="geometry">
            <mxPoint x="530" y="500.32000000000005" as="sourcePoint" />
            <Array as="points">
              <mxPoint x="540" y="500.32000000000005" />
              <mxPoint x="540" y="501.32000000000005" />
              <mxPoint x="420" y="501.32000000000005" />
            </Array>
          </mxGeometry>
        </mxCell>
        <mxCell id="N_iPnZJbgPe1cc1VUElV-56" value="Characteristics" style="rhombus;whiteSpace=wrap;html=1;shadow=0;fontFamily=Helvetica;fontSize=12;align=center;strokeWidth=1;spacing=6;spacingTop=-4;" parent="WIyWlLk6GJQsqaUBKTNV-1" vertex="1">
          <mxGeometry x="370" y="540.32" width="100" height="80" as="geometry" />
        </mxCell>
        <mxCell id="N_iPnZJbgPe1cc1VUElV-57" value="" style="rounded=0;html=1;jettySize=auto;orthogonalLoop=1;fontSize=11;endArrow=block;endFill=0;endSize=8;strokeWidth=1;shadow=0;labelBackgroundColor=none;edgeStyle=orthogonalEdgeStyle;entryX=0.5;entryY=0;entryDx=0;entryDy=0;" parent="WIyWlLk6GJQsqaUBKTNV-1" target="N_iPnZJbgPe1cc1VUElV-58" edge="1">
          <mxGeometry relative="1" as="geometry">
            <mxPoint x="520" y="500.32000000000005" as="sourcePoint" />
            <Array as="points">
              <mxPoint x="520" y="520.32" />
              <mxPoint x="520" y="520.32" />
            </Array>
          </mxGeometry>
        </mxCell>
        <mxCell id="N_iPnZJbgPe1cc1VUElV-58" value="Talents" style="rhombus;whiteSpace=wrap;html=1;shadow=0;fontFamily=Helvetica;fontSize=12;align=center;strokeWidth=1;spacing=6;spacingTop=-4;" parent="WIyWlLk6GJQsqaUBKTNV-1" vertex="1">
          <mxGeometry x="470" y="540.32" width="100" height="80" as="geometry" />
        </mxCell>
        <mxCell id="N_iPnZJbgPe1cc1VUElV-59" value="" style="rounded=0;html=1;jettySize=auto;orthogonalLoop=1;fontSize=11;endArrow=block;endFill=0;endSize=8;strokeWidth=1;shadow=0;labelBackgroundColor=none;edgeStyle=orthogonalEdgeStyle;entryX=0.5;entryY=0;entryDx=0;entryDy=0;exitX=0.543;exitY=0.998;exitDx=0;exitDy=0;exitPerimeter=0;" parent="WIyWlLk6GJQsqaUBKTNV-1" target="N_iPnZJbgPe1cc1VUElV-60" edge="1">
          <mxGeometry relative="1" as="geometry">
            <mxPoint x="540.3199999999999" y="499.9999999999999" as="sourcePoint" />
            <Array as="points">
              <mxPoint x="620" y="500.32000000000005" />
            </Array>
          </mxGeometry>
        </mxCell>
        <mxCell id="N_iPnZJbgPe1cc1VUElV-60" value="Skills" style="rhombus;whiteSpace=wrap;html=1;shadow=0;fontFamily=Helvetica;fontSize=12;align=center;strokeWidth=1;spacing=6;spacingTop=-4;" parent="WIyWlLk6GJQsqaUBKTNV-1" vertex="1">
          <mxGeometry x="570" y="540.32" width="100" height="80" as="geometry" />
        </mxCell>
        <mxCell id="N_iPnZJbgPe1cc1VUElV-61" value="" style="rounded=0;html=1;jettySize=auto;orthogonalLoop=1;fontSize=11;endArrow=block;endFill=0;endSize=8;strokeWidth=1;shadow=0;labelBackgroundColor=none;edgeStyle=orthogonalEdgeStyle;entryX=0.5;entryY=0;entryDx=0;entryDy=0;exitX=0.925;exitY=0.998;exitDx=0;exitDy=0;exitPerimeter=0;" parent="WIyWlLk6GJQsqaUBKTNV-1" target="N_iPnZJbgPe1cc1VUElV-62" edge="1">
          <mxGeometry relative="1" as="geometry">
            <mxPoint x="632" y="499.9999999999999" as="sourcePoint" />
            <Array as="points">
              <mxPoint x="720" y="500.32000000000005" />
            </Array>
          </mxGeometry>
        </mxCell>
        <mxCell id="N_iPnZJbgPe1cc1VUElV-62" value="Wounds" style="rhombus;whiteSpace=wrap;html=1;shadow=0;fontFamily=Helvetica;fontSize=12;align=center;strokeWidth=1;spacing=6;spacingTop=-4;" parent="WIyWlLk6GJQsqaUBKTNV-1" vertex="1">
          <mxGeometry x="670" y="540.32" width="100" height="80" as="geometry" />
        </mxCell>
        <mxCell id="N_iPnZJbgPe1cc1VUElV-74" value="&lt;span style=&quot;font-size: 12px;&quot;&gt;Randomizer Button&lt;/span&gt;" style="ellipse;shape=doubleEllipse;whiteSpace=wrap;html=1;fontFamily=Helvetica;fontSize=11;fontColor=default;labelBackgroundColor=none;" parent="WIyWlLk6GJQsqaUBKTNV-1" vertex="1">
          <mxGeometry x="680" y="220" width="100" height="50" as="geometry" />
        </mxCell>
        <mxCell id="N_iPnZJbgPe1cc1VUElV-79" value="&lt;span style=&quot;font-size: 12px;&quot;&gt;Randomizer Button&lt;/span&gt;" style="ellipse;shape=doubleEllipse;whiteSpace=wrap;html=1;fontFamily=Helvetica;fontSize=11;fontColor=default;labelBackgroundColor=none;" parent="WIyWlLk6GJQsqaUBKTNV-1" vertex="1">
          <mxGeometry x="520" y="460" width="100" height="50" as="geometry" />
        </mxCell>
        <mxCell id="0Ut09t-60lBH6S7AR5-u-0" value="New Squad" style="rounded=1;whiteSpace=wrap;html=1;fontSize=12;glass=0;strokeWidth=1;shadow=0;" vertex="1" parent="WIyWlLk6GJQsqaUBKTNV-1">
          <mxGeometry x="155" y="405" width="120" height="40" as="geometry" />
        </mxCell>
        <mxCell id="0Ut09t-60lBH6S7AR5-u-15" style="edgeStyle=none;curved=1;rounded=0;orthogonalLoop=1;jettySize=auto;html=1;exitX=0.488;exitY=1.02;exitDx=0;exitDy=0;entryX=0.5;entryY=0;entryDx=0;entryDy=0;fontSize=12;startSize=8;endSize=8;exitPerimeter=0;" edge="1" parent="WIyWlLk6GJQsqaUBKTNV-1" source="0Ut09t-60lBH6S7AR5-u-13" target="0Ut09t-60lBH6S7AR5-u-0">
          <mxGeometry relative="1" as="geometry" />
        </mxCell>
        <mxCell id="0Ut09t-60lBH6S7AR5-u-12" value="Regiment" style="swimlane;" vertex="1" parent="WIyWlLk6GJQsqaUBKTNV-1">
          <mxGeometry x="100" y="170" width="230" height="175" as="geometry" />
        </mxCell>
        <mxCell id="0Ut09t-60lBH6S7AR5-u-13" value="&lt;div&gt;Name (Field)&lt;/div&gt;Origins (List)&lt;div&gt;Commanding Officer (List)&lt;/div&gt;&lt;div&gt;Regiment Type (List)&lt;/div&gt;&lt;div&gt;Training Doctrine (List)&lt;/div&gt;&lt;div&gt;Special Equipment (Sep Tool)&lt;/div&gt;&lt;div&gt;Regimental Drawbacks (List)&lt;/div&gt;" style="text;html=1;align=center;verticalAlign=middle;resizable=0;points=[];autosize=1;strokeColor=none;fillColor=none;fontSize=16;" vertex="1" parent="0Ut09t-60lBH6S7AR5-u-12">
          <mxGeometry y="20" width="230" height="150" as="geometry" />
        </mxCell>
        <mxCell id="0Ut09t-60lBH6S7AR5-u-17" value="This character is a [gender] guardsman named [name].&lt;div&gt;[titlecase] is a [speciality] and people often note that [demeanor].&lt;/div&gt;&lt;div&gt;Their Characteristics are [ ]&lt;/div&gt;&lt;div&gt;Their Talents are [ ]&lt;/div&gt;&lt;div&gt;Their Skills are [ ]&lt;/div&gt;&lt;div&gt;Their Wounds are [ ]&lt;/div&gt;" style="rounded=1;whiteSpace=wrap;html=1;fontSize=12;glass=0;strokeWidth=1;shadow=0;" vertex="1" parent="WIyWlLk6GJQsqaUBKTNV-1">
          <mxGeometry x="400" y="620.32" width="340" height="160" as="geometry" />
        </mxCell>
        <mxCell id="0Ut09t-60lBH6S7AR5-u-18" value="" style="curved=1;endArrow=classic;html=1;rounded=0;fontSize=12;startSize=8;endSize=8;exitX=1;exitY=0.5;exitDx=0;exitDy=0;entryX=0;entryY=0.5;entryDx=0;entryDy=0;" edge="1" parent="WIyWlLk6GJQsqaUBKTNV-1">
          <mxGeometry width="50" height="50" relative="1" as="geometry">
            <mxPoint x="265" y="420" as="sourcePoint" />
            <mxPoint x="470" y="95" as="targetPoint" />
            <Array as="points">
              <mxPoint x="450" y="415" />
              <mxPoint x="340" y="225" />
            </Array>
          </mxGeometry>
        </mxCell>
        <mxCell id="0Ut09t-60lBH6S7AR5-u-19" value="How Many&lt;div&gt;Characters?&lt;/div&gt;" style="rhombus;whiteSpace=wrap;html=1;" vertex="1" parent="WIyWlLk6GJQsqaUBKTNV-1">
          <mxGeometry x="304" y="360" width="110" height="80" as="geometry" />
        </mxCell>
        <mxCell id="0Ut09t-60lBH6S7AR5-u-20" value="Randomize&amp;nbsp;&lt;div&gt;or&amp;nbsp;&lt;/div&gt;&lt;div&gt;Manual?&lt;/div&gt;" style="rhombus;whiteSpace=wrap;html=1;" vertex="1" parent="WIyWlLk6GJQsqaUBKTNV-1">
          <mxGeometry x="330" y="155" width="120" height="90" as="geometry" />
        </mxCell>
        <mxCell id="0Ut09t-60lBH6S7AR5-u-23" value="Step 1" style="swimlane;whiteSpace=wrap;html=1;" vertex="1" parent="WIyWlLk6GJQsqaUBKTNV-1">
          <mxGeometry x="470" y="170" width="200" height="135" as="geometry" />
        </mxCell>
        <mxCell id="0Ut09t-60lBH6S7AR5-u-24" value="Gender" style="whiteSpace=wrap;html=1;" vertex="1" parent="0Ut09t-60lBH6S7AR5-u-23">
          <mxGeometry y="25" width="100" height="55" as="geometry" />
        </mxCell>
        <mxCell id="0Ut09t-60lBH6S7AR5-u-25" value="Name/titlecase&lt;div&gt;Demeanor&lt;/div&gt;" style="whiteSpace=wrap;html=1;" vertex="1" parent="0Ut09t-60lBH6S7AR5-u-23">
          <mxGeometry x="100" y="25" width="100" height="55" as="geometry" />
        </mxCell>
        <mxCell id="0Ut09t-60lBH6S7AR5-u-26" value="Speciality" style="whiteSpace=wrap;html=1;" vertex="1" parent="0Ut09t-60lBH6S7AR5-u-23">
          <mxGeometry y="80" width="100" height="55" as="geometry" />
        </mxCell>
        <mxCell id="0Ut09t-60lBH6S7AR5-u-27" value="Characteristics" style="whiteSpace=wrap;html=1;" vertex="1" parent="0Ut09t-60lBH6S7AR5-u-23">
          <mxGeometry x="100" y="80" width="100" height="55" as="geometry" />
        </mxCell>
        <mxCell id="N_iPnZJbgPe1cc1VUElV-70" value="List" style="text;html=1;align=center;verticalAlign=middle;resizable=0;points=[];autosize=1;strokeColor=none;fillColor=none;fontFamily=Helvetica;fontSize=11;fontColor=default;labelBackgroundColor=none;" parent="0Ut09t-60lBH6S7AR5-u-23" vertex="1">
          <mxGeometry x="60" y="80" width="40" height="30" as="geometry" />
        </mxCell>
        <mxCell id="N_iPnZJbgPe1cc1VUElV-71" value="Text" style="text;html=1;align=center;verticalAlign=middle;resizable=0;points=[];autosize=1;strokeColor=none;fillColor=none;fontFamily=Helvetica;fontSize=11;fontColor=default;labelBackgroundColor=none;" parent="0Ut09t-60lBH6S7AR5-u-23" vertex="1">
          <mxGeometry x="160" y="75" width="40" height="30" as="geometry" />
        </mxCell>
        <mxCell id="N_iPnZJbgPe1cc1VUElV-69" value="Text / List" style="text;html=1;align=center;verticalAlign=middle;resizable=0;points=[];autosize=1;strokeColor=none;fillColor=none;fontFamily=Helvetica;fontSize=11;fontColor=default;labelBackgroundColor=none;" parent="0Ut09t-60lBH6S7AR5-u-23" vertex="1">
          <mxGeometry x="130" y="15" width="70" height="30" as="geometry" />
        </mxCell>
        <mxCell id="0Ut09t-60lBH6S7AR5-u-29" value="Check" style="text;html=1;align=center;verticalAlign=middle;resizable=0;points=[];autosize=1;strokeColor=none;fillColor=none;fontFamily=Helvetica;fontSize=11;fontColor=default;labelBackgroundColor=none;" vertex="1" parent="0Ut09t-60lBH6S7AR5-u-23">
          <mxGeometry x="55" y="25" width="50" height="30" as="geometry" />
        </mxCell>
      </root>
    </mxGraphModel>
  </diagram>
</mxfile>
